<svg aria-roledescription="flowchart-v2" role="graphics-document document" viewBox="-8 -8 2662.578125 200.91050720214844" style="max-width: 2662.58px; background-color: white;" xmlns:xlink="http://www.w3.org/1999/xlink" xmlns="http://www.w3.org/2000/svg" width="100%" id="mermaid-1781445808637"><style>#mermaid-1781445808637{font-family:"trebuchet ms",verdana,arial,sans-serif;font-size:16px;fill:#333;}#mermaid-1781445808637 .error-icon{fill:#552222;}#mermaid-1781445808637 .error-text{fill:#552222;stroke:#552222;}#mermaid-1781445808637 .edge-thickness-normal{stroke-width:2px;}#mermaid-1781445808637 .edge-thickness-thick{stroke-width:3.5px;}#mermaid-1781445808637 .edge-pattern-solid{stroke-dasharray:0;}#mermaid-1781445808637 .edge-pattern-dashed{stroke-dasharray:3;}#mermaid-1781445808637 .edge-pattern-dotted{stroke-dasharray:2;}#mermaid-1781445808637 .marker{fill:#333333;stroke:#333333;}#mermaid-1781445808637 .marker.cross{stroke:#333333;}#mermaid-1781445808637 svg{font-family:"trebuchet ms",verdana,arial,sans-serif;font-size:16px;}#mermaid-1781445808637 .label{font-family:"trebuchet ms",verdana,arial,sans-serif;color:#333;}#mermaid-1781445808637 .cluster-label text{fill:#333;}#mermaid-1781445808637 .cluster-label span,#mermaid-1781445808637 p{color:#333;}#mermaid-1781445808637 .label text,#mermaid-1781445808637 span,#mermaid-1781445808637 p{fill:#333;color:#333;}#mermaid-1781445808637 .node rect,#mermaid-1781445808637 .node circle,#mermaid-1781445808637 .node ellipse,#mermaid-1781445808637 .node polygon,#mermaid-1781445808637 .node path{fill:#ECECFF;stroke:#9370DB;stroke-width:1px;}#mermaid-1781445808637 .flowchart-label text{text-anchor:middle;}#mermaid-1781445808637 .node .label{text-align:center;}#mermaid-1781445808637 .node.clickable{cursor:pointer;}#mermaid-1781445808637 .arrowheadPath{fill:#333333;}#mermaid-1781445808637 .edgePath .path{stroke:#333333;stroke-width:2.0px;}#mermaid-1781445808637 .flowchart-link{stroke:#333333;fill:none;}#mermaid-1781445808637 .edgeLabel{background-color:#e8e8e8;text-align:center;}#mermaid-1781445808637 .edgeLabel rect{opacity:0.5;background-color:#e8e8e8;fill:#e8e8e8;}#mermaid-1781445808637 .cluster rect{fill:#ffffde;stroke:#aaaa33;stroke-width:1px;}#mermaid-1781445808637 .cluster text{fill:#333;}#mermaid-1781445808637 .cluster span,#mermaid-1781445808637 p{color:#333;}#mermaid-1781445808637 div.mermaidTooltip{position:absolute;text-align:center;max-width:200px;padding:2px;font-family:"trebuchet ms",verdana,arial,sans-serif;font-size:12px;background:hsl(80, 100%, 96.2745098039%);border:1px solid #aaaa33;border-radius:2px;pointer-events:none;z-index:100;}#mermaid-1781445808637 .flowchartTitleText{text-anchor:middle;font-size:18px;fill:#333;}#mermaid-1781445808637 :root{--mermaid-font-family:"trebuchet ms",verdana,arial,sans-serif;}</style><g><marker orient="auto" markerHeight="12" markerWidth="12" markerUnits="userSpaceOnUse" refY="5" refX="10" viewBox="0 0 12 20" class="marker flowchart" id="flowchart-pointEnd"><path style="stroke-width: 1; stroke-dasharray: 1, 0;" class="arrowMarkerPath" d="M 0 0 L 10 5 L 0 10 z"/></marker><marker orient="auto" markerHeight="12" markerWidth="12" markerUnits="userSpaceOnUse" refY="5" refX="0" viewBox="0 0 10 10" class="marker flowchart" id="flowchart-pointStart"><path style="stroke-width: 1; stroke-dasharray: 1, 0;" class="arrowMarkerPath" d="M 0 5 L 10 10 L 10 0 z"/></marker><marker orient="auto" markerHeight="11" markerWidth="11" markerUnits="userSpaceOnUse" refY="5" refX="11" viewBox="0 0 10 10" class="marker flowchart" id="flowchart-circleEnd"><circle style="stroke-width: 1; stroke-dasharray: 1, 0;" class="arrowMarkerPath" r="5" cy="5" cx="5"/></marker><marker orient="auto" markerHeight="11" markerWidth="11" markerUnits="userSpaceOnUse" refY="5" refX="-1" viewBox="0 0 10 10" class="marker flowchart" id="flowchart-circleStart"><circle style="stroke-width: 1; stroke-dasharray: 1, 0;" class="arrowMarkerPath" r="5" cy="5" cx="5"/></marker><marker orient="auto" markerHeight="11" markerWidth="11" markerUnits="userSpaceOnUse" refY="5.2" refX="12" viewBox="0 0 11 11" class="marker cross flowchart" id="flowchart-crossEnd"><path style="stroke-width: 2; stroke-dasharray: 1, 0;" class="arrowMarkerPath" d="M 1,1 l 9,9 M 10,1 l -9,9"/></marker><marker orient="auto" markerHeight="11" markerWidth="11" markerUnits="userSpaceOnUse" refY="5.2" refX="-1" viewBox="0 0 11 11" class="marker cross flowchart" id="flowchart-crossStart"><path style="stroke-width: 2; stroke-dasharray: 1, 0;" class="arrowMarkerPath" d="M 1,1 l 9,9 M 10,1 l -9,9"/></marker><g class="root"><g class="clusters"/><g class="edgePaths"><path marker-end="url(#flowchart-pointEnd)" style="fill:none;" class="edge-thickness-normal edge-pattern-solid flowchart-link LS-SOCK LE-CONN" id="L-SOCK-CONN-0" d="M56.05362762334053,82.80023381348225L61.06552301945044,79.48527937825995C66.07741841556036,76.17032494303764,76.10120920778017,69.54041607259303,85.27977127055675,66.22546163737074C94.45833333333333,62.91050720214844,102.79166666666667,62.91050720214844,106.95833333333333,62.91050720214844L111.125,62.91050720214844"/><path marker-end="url(#flowchart-pointEnd)" style="fill:none;" class="edge-thickness-normal edge-pattern-solid flowchart-link LS-CONN LE-FC" id="L-CONN-FC-0" d="M296.4375,62.91050720214844L300.6041666666667,62.91050720214844C304.7708333333333,62.91050720214844,313.1041666666667,62.91050720214844,321.4375,62.91050720214844C329.7708333333333,62.91050720214844,338.1041666666667,62.91050720214844,342.2708333333333,62.91050720214844L346.4375,62.91050720214844"/><path marker-end="url(#flowchart-pointEnd)" style="fill:none;" class="edge-thickness-normal edge-pattern-solid flowchart-link LS-FC LE-DS" id="L-FC-DS-0" d="M549.828125,62.91050720214844L553.9947916666666,62.91050720214844C558.1614583333334,62.91050720214844,566.4947916666666,62.91050720214844,574.828125,62.91050720214844C583.1614583333334,62.91050720214844,591.4947916666666,62.91050720214844,595.6614583333334,62.91050720214844L599.828125,62.91050720214844"/><path marker-end="url(#flowchart-pointEnd)" style="fill:none;" class="edge-thickness-normal edge-pattern-solid flowchart-link LS-DS LE-HM" id="L-DS-HM-0" d="M753.890625,62.91050720214844L776.7369791666666,62.91050720214844C799.5833333333334,62.91050720214844,845.2760416666666,62.91050720214844,890.96875,62.91050720214844C936.6614583333334,62.91050720214844,982.3541666666666,62.91050720214844,1005.2005208333334,62.91050720214844L1028.046875,62.91050720214844"/><path marker-end="url(#flowchart-pointEnd)" style="fill:none;" class="edge-thickness-normal edge-pattern-solid flowchart-link LS-HM LE-HA" id="L-HM-HA-0" d="M1234.453125,62.91050720214844L1238.6197916666667,62.91050720214844C1242.7864583333333,62.91050720214844,1251.1197916666667,62.91050720214844,1259.453125,62.91050720214844C1267.7864583333333,62.91050720214844,1276.1197916666667,62.91050720214844,1280.2864583333333,62.91050720214844L1284.453125,62.91050720214844"/><path marker-end="url(#flowchart-pointEnd)" style="fill:none;" class="edge-thickness-normal edge-pattern-solid flowchart-link LS-HA LE-CTRL" id="L-HA-CTRL-0" d="M1497.375,62.91050720214844L1501.5416666666667,62.91050720214844C1505.7083333333333,62.91050720214844,1514.0416666666667,62.91050720214844,1522.375,62.91050720214844C1530.7083333333333,62.91050720214844,1539.0416666666667,62.91050720214844,1543.2083333333333,62.91050720214844L1547.375,62.91050720214844"/><path marker-end="url(#flowchart-pointEnd)" style="fill:none;" class="edge-thickness-normal edge-pattern-solid flowchart-link LS-CTRL LE-SVC" id="L-CTRL-SVC-0" d="M1634.8125,57.19595444667904L1646.3333333333333,55.6900465725906C1657.8541666666667,54.184138698502174,1680.8958333333333,51.1723229503253,1703.9375,49.666415076236866C1726.9791666666667,48.16050720214844,1750.0208333333333,48.16050720214844,1761.5416666666667,48.16050720214844L1773.0625,48.16050720214844"/><path marker-end="url(#flowchart-pointEnd)" style="fill:none;" class="edge-thickness-normal edge-pattern-solid flowchart-link LS-SVC LE-REPO" id="L-SVC-REPO-0" d="M2035.625,48.16050720214844L2039.7916666666667,48.16050720214844C2043.9583333333333,48.16050720214844,2052.2916666666665,48.16050720214844,2060.625,48.16050720214844C2068.9583333333335,48.16050720214844,2077.2916666666665,48.16050720214844,2081.4583333333335,48.16050720214844L2085.625,48.16050720214844"/><path marker-end="url(#flowchart-pointEnd)" style="fill:none;" class="edge-thickness-normal edge-pattern-solid flowchart-link LS-REPO LE-PC" id="L-REPO-PC-0" d="M2220.046875,48.16050720214844L2224.2135416666665,48.16050720214844C2228.3802083333335,48.16050720214844,2236.7135416666665,48.16050720214844,2245.046875,48.16050720214844C2253.3802083333335,48.16050720214844,2261.7135416666665,48.16050720214844,2265.8802083333335,48.16050720214844L2270.046875,48.16050720214844"/><path marker-end="url(#flowchart-pointEnd)" style="fill:none;" class="edge-thickness-normal edge-pattern-solid flowchart-link LS-PC LE-DB" id="L-PC-DB-0" d="M2425.640625,48.16050720214844L2429.8072916666665,48.16050720214844C2433.9739583333335,48.16050720214844,2442.3072916666665,48.16050720214844,2450.640625,48.16050720214844C2458.9739583333335,48.16050720214844,2467.3072916666665,48.16050720214844,2471.4739583333335,48.16050720214844L2475.640625,48.16050720214844"/><path marker-end="url(#flowchart-pointEnd)" style="fill:none;stroke-width:2px;stroke-dasharray:3;" class="edge-thickness-normal edge-pattern-dotted flowchart-link LS-CTRL LE-MC" id="L-CTRL-MC-0" d="M1628.3431432038835,79.91050720214844L1640.942202669903,85.66050720214844C1653.5412621359221,91.41050720214844,1678.7393810679612,102.91050720214844,1710.0532842839805,112.09238873185372C1741.3671875,121.27427026155901,1778.796875,128.13803332096958,1797.51171875,131.56991485067485L1816.2265625,135.00179638038014"/><path marker-end="url(#flowchart-pointEnd)" style="fill:none;stroke-width:2px;stroke-dasharray:3;" class="edge-thickness-normal edge-pattern-dotted flowchart-link LS-MC LE-SOCK" id="L-MC-SOCK-0" d="M1816.2265625,157.6459761714296L1797.51171875,159.02339800988273C1778.796875,160.40081984833589,1741.3671875,163.15566352524215,1703.8450520833333,164.53308536369528C1666.3229166666667,165.91050720214844,1628.7083333333333,165.91050720214844,1598.4479166666667,165.91050720214844C1568.1875,165.91050720214844,1545.28125,165.91050720214844,1511.91796875,165.91050720214844C1478.5546875,165.91050720214844,1434.734375,165.91050720214844,1390.9140625,165.91050720214844C1347.09375,165.91050720214844,1303.2734375,165.91050720214844,1259.99609375,165.91050720214844C1216.71875,165.91050720214844,1173.984375,165.91050720214844,1112.5703125,165.91050720214844C1051.15625,165.91050720214844,971.0625,165.91050720214844,895.3307291666666,165.91050720214844C819.5989583333334,165.91050720214844,748.2291666666666,165.91050720214844,695.5390625,165.91050720214844C642.8489583333334,165.91050720214844,608.8385416666666,165.91050720214844,570.7174479166666,165.91050720214844C532.5963541666666,165.91050720214844,490.3645833333333,165.91050720214844,448.1328125,165.91050720214844C405.9010416666667,165.91050720214844,363.6692708333333,165.91050720214844,322.9440104166667,165.91050720214844C282.21875,165.91050720214844,243,165.91050720214844,203.78125,165.91050720214844C164.5625,165.91050720214844,125.34375,165.91050720214844,99.74719481723535,158.77168718670353C74.15063963447069,151.6328671712586,62.17627926894138,137.35522714036875,56.189099086176725,130.21640712492385L50.201918903412064,123.07758710947891"/></g><g class="edgeLabels"><g class="edgeLabel"><g transform="translate(0, 0)" class="label"><foreignObject height="0" width="0"><div style="display: inline-block; white-space: nowrap;" xmlns="http://www.w3.org/1999/xhtml"><span class="edgeLabel"></span></div></foreignObject></g></g><g class="edgeLabel"><g transform="translate(0, 0)" class="label"><foreignObject height="0" width="0"><div style="display: inline-block; white-space: nowrap;" xmlns="http://www.w3.org/1999/xhtml"><span class="edgeLabel"></span></div></foreignObject></g></g><g class="edgeLabel"><g transform="translate(0, 0)" class="label"><foreignObject height="0" width="0"><div style="display: inline-block; white-space: nowrap;" xmlns="http://www.w3.org/1999/xhtml"><span class="edgeLabel"></span></div></foreignObject></g></g><g class="edgeLabel"><g transform="translate(0, 0)" class="label"><foreignObject height="0" width="0"><div style="display: inline-block; white-space: nowrap;" xmlns="http://www.w3.org/1999/xhtml"><span class="edgeLabel"></span></div></foreignObject></g></g><g class="edgeLabel"><g transform="translate(0, 0)" class="label"><foreignObject height="0" width="0"><div style="display: inline-block; white-space: nowrap;" xmlns="http://www.w3.org/1999/xhtml"><span class="edgeLabel"></span></div></foreignObject></g></g><g class="edgeLabel"><g transform="translate(0, 0)" class="label"><foreignObject height="0" width="0"><div style="display: inline-block; white-space: nowrap;" xmlns="http://www.w3.org/1999/xhtml"><span class="edgeLabel"></span></div></foreignObject></g></g><g class="edgeLabel"><g transform="translate(0, 0)" class="label"><foreignObject height="0" width="0"><div style="display: inline-block; white-space: nowrap;" xmlns="http://www.w3.org/1999/xhtml"><span class="edgeLabel"></span></div></foreignObject></g></g><g class="edgeLabel"><g transform="translate(0, 0)" class="label"><foreignObject height="0" width="0"><div style="display: inline-block; white-space: nowrap;" xmlns="http://www.w3.org/1999/xhtml"><span class="edgeLabel"></span></div></foreignObject></g></g><g class="edgeLabel"><g transform="translate(0, 0)" class="label"><foreignObject height="0" width="0"><div style="display: inline-block; white-space: nowrap;" xmlns="http://www.w3.org/1999/xhtml"><span class="edgeLabel"></span></div></foreignObject></g></g><g class="edgeLabel"><g transform="translate(0, 0)" class="label"><foreignObject height="0" width="0"><div style="display: inline-block; white-space: nowrap;" xmlns="http://www.w3.org/1999/xhtml"><span class="edgeLabel"></span></div></foreignObject></g></g><g transform="translate(1703.9375, 114.41050720214844)" class="edgeLabel"><g transform="translate(-44.125, -9.5)" class="label"><foreignObject height="19" width="88.25"><div style="display: inline-block; white-space: nowrap;" xmlns="http://www.w3.org/1999/xhtml"><span class="edgeLabel">return value</span></div></foreignObject></g></g><g transform="translate(890.96875, 165.91050720214844)" class="edgeLabel"><g transform="translate(-112.078125, -19)" class="label"><foreignObject height="38" width="224.15625"><div style="display: inline-block; white-space: nowrap;" xmlns="http://www.w3.org/1999/xhtml"><span class="edgeLabel">postHandle · afterCompletion ·<br />filters unwind</span></div></foreignObject></g></g></g><g class="nodes"><g transform="translate(30.5625, 99.66050720214844)" id="flowchart-SOCK-48" class="node default default flowchart-label"><circle height="34" width="61.125" r="30.5625" ry="0" rx="0" style=""/><g transform="translate(-23.0625, -9.5)" style="" class="label"><rect/><foreignObject height="19" width="46.125"><div style="display: inline-block; white-space: nowrap;" xmlns="http://www.w3.org/1999/xhtml"><span class="nodeLabel">socket</span></div></foreignObject></g></g><g transform="translate(203.78125, 62.91050720214844)" id="flowchart-CONN-49" class="node default default flowchart-label"><rect height="53" width="185.3125" y="-26.5" x="-92.65625" ry="0" rx="0" style="" class="basic label-container"/><g transform="translate(-85.15625, -19)" style="" class="label"><rect/><foreignObject height="38" width="170.3125"><div style="display: inline-block; white-space: nowrap;" xmlns="http://www.w3.org/1999/xhtml"><span class="nodeLabel">Connector<br />(Tomcat worker thread)</span></div></foreignObject></g></g><g transform="translate(448.1328125, 62.91050720214844)" id="flowchart-FC-51" class="node default default flowchart-label"><rect height="53" width="203.390625" y="-26.5" x="-101.6953125" ry="0" rx="0" style="" class="basic label-container"/><g transform="translate(-94.1953125, -19)" style="" class="label"><rect/><foreignObject height="38" width="188.390625"><div style="display: inline-block; white-space: nowrap;" xmlns="http://www.w3.org/1999/xhtml"><span class="nodeLabel">Filter chain<br />(before Spring MVC exists)</span></div></foreignObject></g></g><g transform="translate(676.859375, 62.91050720214844)" id="flowchart-DS-53" class="node default default flowchart-label"><rect height="53" width="154.0625" y="-26.5" x="-77.03125" ry="0" rx="0" style="" class="basic label-container"/><g transform="translate(-69.53125, -19)" style="" class="label"><rect/><foreignObject height="38" width="139.0625"><div style="display: inline-block; white-space: nowrap;" xmlns="http://www.w3.org/1999/xhtml"><span class="nodeLabel">DispatcherServlet<br />(just a servlet at /)</span></div></foreignObject></g></g><g transform="translate(1131.25, 62.91050720214844)" id="flowchart-HM-55" class="node default default flowchart-label"><rect height="53" width="206.40625" y="-26.5" x="-103.203125" ry="0" rx="0" style="" class="basic label-container"/><g transform="translate(-95.703125, -19)" style="" class="label"><rect/><foreignObject height="38" width="191.40625"><div style="display: inline-block; white-space: nowrap;" xmlns="http://www.w3.org/1999/xhtml"><span class="nodeLabel">HandlerMapping<br />+ interceptors (preHandle)</span></div></foreignObject></g></g><g transform="translate(1390.9140625, 62.91050720214844)" id="flowchart-HA-57" class="node default default flowchart-label"><rect height="53" width="212.921875" y="-26.5" x="-106.4609375" ry="0" rx="0" style="" class="basic label-container"/><g transform="translate(-98.9609375, -19)" style="" class="label"><rect/><foreignObject height="38" width="197.921875"><div style="display: inline-block; white-space: nowrap;" xmlns="http://www.w3.org/1999/xhtml"><span class="nodeLabel">HandlerAdapter<br />resolvers · Jackson · @Valid</span></div></foreignObject></g></g><g transform="translate(1591.09375, 62.91050720214844)" id="flowchart-CTRL-59" class="node default default flowchart-label"><rect height="34" width="87.4375" y="-17" x="-43.71875" ry="0" rx="0" style="" class="basic label-container"/><g transform="translate(-36.21875, -9.5)" style="" class="label"><rect/><foreignObject height="19" width="72.4375"><div style="display: inline-block; white-space: nowrap;" xmlns="http://www.w3.org/1999/xhtml"><span class="nodeLabel">Controller</span></div></foreignObject></g></g><g transform="translate(1904.34375, 48.16050720214844)" id="flowchart-SVC-61" class="node default default flowchart-label"><rect height="53" width="262.5625" y="-26.5" x="-131.28125" ry="0" rx="0" style="" class="basic label-container"/><g transform="translate(-123.78125, -19)" style="" class="label"><rect/><foreignObject height="38" width="247.5625"><div style="display: inline-block; white-space: nowrap;" xmlns="http://www.w3.org/1999/xhtml"><span class="nodeLabel">Service<br />(@Transactional proxy wraps here)</span></div></foreignObject></g></g><g transform="translate(2152.8359375, 48.16050720214844)" id="flowchart-REPO-63" class="node default default flowchart-label"><rect height="34" width="134.421875" y="-17" x="-67.2109375" ry="0" rx="0" style="" class="basic label-container"/><g transform="translate(-59.7109375, -9.5)" style="" class="label"><rect/><foreignObject height="19" width="119.421875"><div style="display: inline-block; white-space: nowrap;" xmlns="http://www.w3.org/1999/xhtml"><span class="nodeLabel">Repository proxy</span></div></foreignObject></g></g><g transform="translate(2347.84375, 48.16050720214844)" id="flowchart-PC-65" class="node default default flowchart-label"><rect height="34" width="155.59375" y="-17" x="-77.796875" ry="0" rx="0" style="" class="basic label-container"/><g transform="translate(-70.296875, -9.5)" style="" class="label"><rect/><foreignObject height="19" width="140.59375"><div style="display: inline-block; white-space: nowrap;" xmlns="http://www.w3.org/1999/xhtml"><span class="nodeLabel">Persistence context</span></div></foreignObject></g></g><g transform="translate(2561.109375, 48.16050720214844)" id="flowchart-DB-67" class="node default default flowchart-label"><path transform="translate(-85.46875,-48.160506863780356)" d="M 0,14.440337909186905 a 85.46875,14.440337909186905 0,0,0 170.9375 0 a 85.46875,14.440337909186905 0,0,0 -170.9375 0 l 0,67.44033790918691 a 85.46875,14.440337909186905 0,0,0 170.9375 0 l 0,-67.44033790918691" style=""/><g transform="translate(-77.96875, -19)" style="" class="label"><rect/><foreignObject height="38" width="155.9375"><div style="display: inline-block; white-space: nowrap;" xmlns="http://www.w3.org/1999/xhtml"><span class="nodeLabel">PostgreSQL<br />(HikariCP connection)</span></div></foreignObject></g></g><g transform="translate(1904.34375, 151.16050720214844)" id="flowchart-MC-69" class="node default default flowchart-label"><rect height="53" width="176.234375" y="-26.5" x="-88.1171875" ry="0" rx="0" style="" class="basic label-container"/><g transform="translate(-80.6171875, -19)" style="" class="label"><rect/><foreignObject height="38" width="161.234375"><div style="display: inline-block; white-space: nowrap;" xmlns="http://www.w3.org/1999/xhtml"><span class="nodeLabel">HttpMessageConverter<br />(content negotiation)</span></div></foreignObject></g></g></g></g></g></svg>