<svg xmlns="http://www.w3.org/2000/svg" version="1.1" xmlns:xlink="http://www.w3.org/1999/xlink" xmlns:svgjs="http://svgjs.com/svgjs" width="1000" height="1000"><rect width="1000" height="1000" rx="500" ry="500" fill="#00fcff"></rect><g transform="matrix(7.207207207207207,0,0,7.207207207207207,100,236.21405728930455)"><svg xmlns="http://www.w3.org/2000/svg" version="1.1" xmlns:xlink="http://www.w3.org/1999/xlink" xmlns:svgjs="http://svgjs.com/svgjs" width="111" height="73.201"><svg width="111" height="73.201" viewBox="0 0 111 73.201" xmlns="http://www.w3.org/2000/svg"><g id="svgGroup" stroke-linecap="round" fill-rule="evenodd" font-size="9pt" stroke="#000000" stroke-width="0.25mm" fill="none" style="stroke:#000000;stroke-width:0.25mm;fill:none"><path d="M 52.634 34.575 A 56.187 56.187 0 0 0 53 28.3 A 38.592 38.592 0 0 0 52.864 25.091 A 45.334 45.334 0 0 0 51.85 18.7 Q 50.7 13.7 48.05 9.55 Q 45.4 5.4 41.2 2.7 Q 37 0 31 0 A 31.895 31.895 0 0 0 26.096 0.365 A 24.23 24.23 0 0 0 17.15 3.55 Q 11.3 7.1 7.5 12.7 A 38.039 38.039 0 0 0 5.878 15.312 A 41.778 41.778 0 0 0 1.85 25.35 Q 0 32.4 0 39.4 Q 0 41.1 0.15 43.05 Q 0.3 45 0.55 46.95 A 98.841 98.841 0 0 0 0.695 48.032 A 84.937 84.937 0 0 0 1.1 50.65 A 34.312 34.312 0 0 0 1.186 51.134 Q 1.456 52.583 1.8 53.7 A 4.587 4.587 0 0 0 1.894 53.932 Q 2.122 54.453 2.32 54.453 A 0.15 0.15 0 0 0 2.35 54.45 Q 2.578 54.405 2.515 53.737 A 4.472 4.472 0 0 0 2.5 53.6 Q 2.3 51.6 1.9 48.55 Q 1.5 45.5 1.5 42.5 A 50.981 50.981 0 0 1 1.739 37.616 A 60.757 60.757 0 0 1 3.2 29.1 Q 4.9 22.1 8.45 16.3 Q 12 10.5 17.5 6.7 A 20.676 20.676 0 0 1 23.782 3.778 A 25.454 25.454 0 0 1 30.6 2.9 A 25.061 25.061 0 0 1 30.878 2.902 Q 32.952 2.925 34.766 3.293 A 14.769 14.769 0 0 1 39.25 4.95 Q 42.8 7 45.1 10.35 A 22.696 22.696 0 0 1 46.425 12.537 A 25.745 25.745 0 0 1 48.55 18 Q 49.7 22.3 49.95 26.85 Q 50.2 31.4 49.65 35.85 A 64.684 64.684 0 0 1 49.059 39.709 A 49.196 49.196 0 0 1 48.1 43.9 A 31.302 31.302 0 0 1 47.917 44.553 Q 46.802 48.376 44.5 52.75 Q 42 57.5 38.45 61.65 Q 34.9 65.8 30.5 68.55 A 20.542 20.542 0 0 1 30.225 68.72 A 17.199 17.199 0 0 1 21.2 71.3 Q 16.5 71.3 13.4 68.75 A 17.344 17.344 0 0 1 11.223 66.61 A 19.9 19.9 0 0 1 8.4 62.2 A 27.341 27.341 0 0 1 6.946 58.42 A 34.289 34.289 0 0 1 5.8 53.1 Q 5.1 48 5.2 43 Q 5.3 38 6.1 33.45 A 57.293 57.293 0 0 1 6.514 31.321 Q 6.856 29.732 7.256 28.368 A 27.469 27.469 0 0 1 8.1 25.9 Q 9.6 22.3 11.7 18.95 A 30.925 30.925 0 0 1 11.965 18.535 A 27.634 27.634 0 0 1 16.55 13.1 Q 19.3 10.6 22.7 9.1 Q 26.1 7.6 30 7.6 A 15.19 15.19 0 0 1 32.973 7.878 A 10.807 10.807 0 0 1 37.6 9.95 Q 40.6 12.3 42.3 15.8 A 26.253 26.253 0 0 1 42.807 16.909 A 28.564 28.564 0 0 1 44.7 23.4 A 52.486 52.486 0 0 1 45.179 26.873 A 40.487 40.487 0 0 1 45.4 31 Q 45.4 34.7 44.85 38.25 Q 44.3 41.8 43.6 45.4 Q 43.4 46.3 43.45 46.75 A 0.398 0.398 0 0 0 43.457 46.792 Q 43.521 47.087 43.966 46.106 A 16.458 16.458 0 0 0 44.1 45.8 Q 46.1 41.6 46.9 37.15 Q 47.7 32.7 47.7 28 A 34.668 34.668 0 0 0 47.644 26.035 A 39.179 39.179 0 0 0 46.8 19.95 A 27.67 27.67 0 0 0 46.621 19.179 A 24.348 24.348 0 0 0 43.85 12.4 Q 41.8 9 38.5 6.8 A 12.707 12.707 0 0 0 34.017 4.964 A 18.052 18.052 0 0 0 30.3 4.6 A 24.706 24.706 0 0 0 28.303 4.68 A 20.024 20.024 0 0 0 19.3 7.55 Q 14.5 10.5 11.1 15.3 A 35.811 35.811 0 0 0 9.025 18.601 A 41.284 41.284 0 0 0 5.75 26.3 Q 3.8 32.5 3.2 38.9 A 56.351 56.351 0 0 0 2.952 44.163 A 53.96 53.96 0 0 0 3.45 51.5 A 44.301 44.301 0 0 0 4.372 56.307 A 34.306 34.306 0 0 0 6.55 62.5 Q 8.8 67.3 12.45 70.25 A 12.996 12.996 0 0 0 16.035 72.318 A 14.192 14.192 0 0 0 21.1 73.2 A 27.345 27.345 0 0 0 22.848 73.145 A 23.043 23.043 0 0 0 31 71.15 Q 35.5 69.1 39.05 65.65 Q 42.6 62.2 45.2 57.7 Q 47.8 53.2 49.55 48.2 Q 51.3 43.2 52.15 38.05 A 68.025 68.025 0 0 0 52.634 34.575 Z M 110.634 34.575 A 56.187 56.187 0 0 0 111 28.3 A 38.592 38.592 0 0 0 110.864 25.091 A 45.334 45.334 0 0 0 109.85 18.7 Q 108.7 13.7 106.05 9.55 Q 103.4 5.4 99.2 2.7 Q 95 0 89 0 A 31.895 31.895 0 0 0 84.096 0.365 A 24.23 24.23 0 0 0 75.15 3.55 Q 69.3 7.1 65.5 12.7 A 38.039 38.039 0 0 0 63.878 15.312 A 41.778 41.778 0 0 0 59.85 25.35 Q 58 32.4 58 39.4 Q 58 41.1 58.15 43.05 Q 58.3 45 58.55 46.95 A 98.841 98.841 0 0 0 58.695 48.032 A 84.937 84.937 0 0 0 59.1 50.65 A 34.312 34.312 0 0 0 59.186 51.134 Q 59.456 52.583 59.8 53.7 A 4.587 4.587 0 0 0 59.894 53.932 Q 60.122 54.453 60.32 54.453 A 0.15 0.15 0 0 0 60.35 54.45 Q 60.578 54.405 60.515 53.737 A 4.472 4.472 0 0 0 60.5 53.6 Q 60.3 51.6 59.9 48.55 Q 59.5 45.5 59.5 42.5 A 50.981 50.981 0 0 1 59.739 37.616 A 60.757 60.757 0 0 1 61.2 29.1 Q 62.9 22.1 66.45 16.3 Q 70 10.5 75.5 6.7 A 20.676 20.676 0 0 1 81.782 3.778 A 25.454 25.454 0 0 1 88.6 2.9 A 25.061 25.061 0 0 1 88.878 2.902 Q 90.952 2.925 92.766 3.293 A 14.769 14.769 0 0 1 97.25 4.95 Q 100.8 7 103.1 10.35 A 22.696 22.696 0 0 1 104.425 12.537 A 25.745 25.745 0 0 1 106.55 18 Q 107.7 22.3 107.95 26.85 Q 108.2 31.4 107.65 35.85 A 64.684 64.684 0 0 1 107.059 39.709 A 49.196 49.196 0 0 1 106.1 43.9 A 31.302 31.302 0 0 1 105.917 44.553 Q 104.802 48.376 102.5 52.75 Q 100 57.5 96.45 61.65 Q 92.9 65.8 88.5 68.55 A 20.542 20.542 0 0 1 88.225 68.72 A 17.199 17.199 0 0 1 79.2 71.3 Q 74.5 71.3 71.4 68.75 A 17.344 17.344 0 0 1 69.223 66.61 A 19.9 19.9 0 0 1 66.4 62.2 A 27.341 27.341 0 0 1 64.946 58.42 A 34.289 34.289 0 0 1 63.8 53.1 Q 63.1 48 63.2 43 Q 63.3 38 64.1 33.45 A 57.293 57.293 0 0 1 64.514 31.321 Q 64.856 29.732 65.256 28.368 A 27.469 27.469 0 0 1 66.1 25.9 Q 67.6 22.3 69.7 18.95 A 30.925 30.925 0 0 1 69.965 18.535 A 27.634 27.634 0 0 1 74.55 13.1 Q 77.3 10.6 80.7 9.1 Q 84.1 7.6 88 7.6 A 15.19 15.19 0 0 1 90.973 7.878 A 10.807 10.807 0 0 1 95.6 9.95 Q 98.6 12.3 100.3 15.8 A 26.253 26.253 0 0 1 100.807 16.909 A 28.564 28.564 0 0 1 102.7 23.4 A 52.486 52.486 0 0 1 103.179 26.873 A 40.487 40.487 0 0 1 103.4 31 Q 103.4 34.7 102.85 38.25 Q 102.3 41.8 101.6 45.4 Q 101.4 46.3 101.45 46.75 A 0.398 0.398 0 0 0 101.457 46.792 Q 101.521 47.087 101.966 46.106 A 16.458 16.458 0 0 0 102.1 45.8 Q 104.1 41.6 104.9 37.15 Q 105.7 32.7 105.7 28 A 34.668 34.668 0 0 0 105.644 26.035 A 39.179 39.179 0 0 0 104.8 19.95 A 27.67 27.67 0 0 0 104.621 19.179 A 24.348 24.348 0 0 0 101.85 12.4 Q 99.8 9 96.5 6.8 A 12.707 12.707 0 0 0 92.017 4.964 A 18.052 18.052 0 0 0 88.3 4.6 A 24.706 24.706 0 0 0 86.303 4.68 A 20.024 20.024 0 0 0 77.3 7.55 Q 72.5 10.5 69.1 15.3 A 35.811 35.811 0 0 0 67.025 18.601 A 41.284 41.284 0 0 0 63.75 26.3 Q 61.8 32.5 61.2 38.9 A 56.351 56.351 0 0 0 60.952 44.163 A 53.96 53.96 0 0 0 61.45 51.5 A 44.301 44.301 0 0 0 62.372 56.307 A 34.306 34.306 0 0 0 64.55 62.5 Q 66.8 67.3 70.45 70.25 A 12.996 12.996 0 0 0 74.035 72.318 A 14.192 14.192 0 0 0 79.1 73.2 A 27.345 27.345 0 0 0 80.848 73.145 A 23.043 23.043 0 0 0 89 71.15 Q 93.5 69.1 97.05 65.65 Q 100.6 62.2 103.2 57.7 Q 105.8 53.2 107.55 48.2 Q 109.3 43.2 110.15 38.05 A 68.025 68.025 0 0 0 110.634 34.575 Z M 43.138 35.254 A 41.466 41.466 0 0 0 43.6 29.2 Q 43.6 26.3 42.8 22.85 Q 42 19.4 40.35 16.45 Q 38.7 13.5 36 11.5 A 9.865 9.865 0 0 0 33.1 10.016 A 11.484 11.484 0 0 0 29.6 9.5 Q 25.7 9.5 22.4 11.25 Q 19.1 13 16.45 15.8 A 27.179 27.179 0 0 0 16.285 15.976 A 28.881 28.881 0 0 0 11.9 22.2 Q 10 25.8 8.9 29.5 Q 8.8 29.9 8.9 30.1 A 0.449 0.449 0 0 0 8.901 30.129 Q 8.91 30.277 9.025 30.216 A 0.313 0.313 0 0 0 9.05 30.2 A 0.354 0.354 0 0 0 9.112 30.145 Q 9.223 30.024 9.393 29.708 A 8.035 8.035 0 0 0 9.5 29.5 Q 11.1 26.6 12.95 23.55 Q 14.8 20.5 17.1 18.05 Q 19.4 15.6 22.3 14 A 12.406 12.406 0 0 1 25.041 12.893 A 14.62 14.62 0 0 1 28.9 12.4 A 10.729 10.729 0 0 1 31.09 12.613 A 7.531 7.531 0 0 1 34.45 14.2 Q 36.6 16 37.85 18.65 Q 39.1 21.3 39.55 24.3 A 43.497 43.497 0 0 1 39.873 27.003 A 32.537 32.537 0 0 1 40 29.8 Q 40 33.6 39.3 37.45 Q 38.6 41.3 37.25 45.05 Q 35.9 48.8 33.9 52.25 Q 31.9 55.7 29.3 58.5 Q 27.6 60.5 25.05 62.45 Q 22.5 64.4 19.7 64.4 A 6.787 6.787 0 0 1 19.217 64.384 Q 18.704 64.347 18.271 64.23 A 3.287 3.287 0 0 1 17.3 63.8 A 14.762 14.762 0 0 1 16.738 63.406 A 17.33 17.33 0 0 1 15.5 62.4 A 9.587 9.587 0 0 0 15.227 62.137 Q 14.809 61.751 14.565 61.643 A 0.419 0.419 0 0 0 14.4 61.6 A 0.145 0.145 0 0 0 14.387 61.601 Q 14.117 61.624 14.9 62.7 A 9.228 9.228 0 0 0 15.49 63.493 A 7.482 7.482 0 0 0 17.25 65.05 A 4.803 4.803 0 0 0 17.403 65.143 Q 18.151 65.576 19.089 65.762 A 7.785 7.785 0 0 0 20.6 65.9 A 11.513 11.513 0 0 0 21.028 65.893 A 9.905 9.905 0 0 0 24.85 65 Q 26.8 64.1 28.5 62.8 A 29.816 29.816 0 0 0 29.168 62.265 A 31.951 31.951 0 0 0 34.9 56.05 Q 37.7 52.1 39.65 47.55 Q 41.6 43 42.6 38.25 A 49.939 49.939 0 0 0 43.138 35.254 Z M 101.138 35.254 A 41.466 41.466 0 0 0 101.6 29.2 Q 101.6 26.3 100.8 22.85 Q 100 19.4 98.35 16.45 Q 96.7 13.5 94 11.5 A 9.865 9.865 0 0 0 91.1 10.016 A 11.484 11.484 0 0 0 87.6 9.5 Q 83.7 9.5 80.4 11.25 Q 77.1 13 74.45 15.8 A 27.179 27.179 0 0 0 74.285 15.976 A 28.881 28.881 0 0 0 69.9 22.2 Q 68 25.8 66.9 29.5 Q 66.8 29.9 66.9 30.1 A 0.449 0.449 0 0 0 66.901 30.129 Q 66.91 30.277 67.025 30.216 A 0.313 0.313 0 0 0 67.05 30.2 A 0.354 0.354 0 0 0 67.112 30.145 Q 67.223 30.024 67.393 29.708 A 8.035 8.035 0 0 0 67.5 29.5 Q 69.1 26.6 70.95 23.55 Q 72.8 20.5 75.1 18.05 Q 77.4 15.6 80.3 14 A 12.406 12.406 0 0 1 83.041 12.893 A 14.62 14.62 0 0 1 86.9 12.4 A 10.729 10.729 0 0 1 89.09 12.613 A 7.531 7.531 0 0 1 92.45 14.2 Q 94.6 16 95.85 18.65 Q 97.1 21.3 97.55 24.3 A 43.497 43.497 0 0 1 97.873 27.003 A 32.537 32.537 0 0 1 98 29.8 Q 98 33.6 97.3 37.45 Q 96.6 41.3 95.25 45.05 Q 93.9 48.8 91.9 52.25 Q 89.9 55.7 87.3 58.5 Q 85.6 60.5 83.05 62.45 Q 80.5 64.4 77.7 64.4 A 6.787 6.787 0 0 1 77.217 64.384 Q 76.704 64.347 76.271 64.23 A 3.287 3.287 0 0 1 75.3 63.8 A 14.762 14.762 0 0 1 74.738 63.406 A 17.33 17.33 0 0 1 73.5 62.4 A 9.587 9.587 0 0 0 73.227 62.137 Q 72.809 61.751 72.565 61.643 A 0.419 0.419 0 0 0 72.4 61.6 A 0.145 0.145 0 0 0 72.387 61.601 Q 72.117 61.624 72.9 62.7 A 9.228 9.228 0 0 0 73.49 63.493 A 7.482 7.482 0 0 0 75.25 65.05 A 4.803 4.803 0 0 0 75.403 65.143 Q 76.151 65.576 77.089 65.762 A 7.785 7.785 0 0 0 78.6 65.9 A 11.513 11.513 0 0 0 79.028 65.893 A 9.905 9.905 0 0 0 82.85 65 Q 84.8 64.1 86.5 62.8 A 29.816 29.816 0 0 0 87.168 62.265 A 31.951 31.951 0 0 0 92.9 56.05 Q 95.7 52.1 97.65 47.55 Q 99.6 43 100.6 38.25 A 49.939 49.939 0 0 0 101.138 35.254 Z M 25.5 68.3 Q 23.2 69.5 20.6 69.5 Q 17 69.5 14.4 67.5 Q 11.8 65.5 10.05 62.6 Q 8.3 59.7 7.5 56.3 Q 6.7 52.9 6.7 50 A 10.226 10.226 0 0 1 6.706 49.663 Q 6.725 49.1 6.8 48.2 Q 6.9 47 7.05 45.85 A 17.606 17.606 0 0 1 7.219 44.795 Q 7.318 44.281 7.442 43.83 A 10.746 10.746 0 0 1 7.45 43.8 A 3.457 3.457 0 0 1 7.553 43.483 Q 7.778 42.9 8.1 42.9 Q 8.478 42.9 8.454 44.283 A 11.048 11.048 0 0 1 8.45 44.45 Q 8.4 46 8.6 48.8 A 19.29 19.29 0 0 0 8.751 50.443 Q 8.975 52.135 9.5 54.3 Q 10.3 57.6 11.8 60.65 A 20.35 20.35 0 0 0 14.255 64.519 A 18.018 18.018 0 0 0 15.5 65.9 Q 17.7 68.1 20.6 68.1 A 26.861 26.861 0 0 0 22.975 68 A 19.77 19.77 0 0 0 25.1 67.7 Q 26.1 67.5 26.6 67.5 Q 27.054 67.5 25.777 68.16 A 23.943 23.943 0 0 1 25.5 68.3 Z M 83.5 68.3 Q 81.2 69.5 78.6 69.5 Q 75 69.5 72.4 67.5 Q 69.8 65.5 68.05 62.6 Q 66.3 59.7 65.5 56.3 Q 64.7 52.9 64.7 50 A 10.226 10.226 0 0 1 64.706 49.663 Q 64.725 49.1 64.8 48.2 Q 64.9 47 65.05 45.85 A 17.606 17.606 0 0 1 65.219 44.795 Q 65.318 44.281 65.442 43.83 A 10.746 10.746 0 0 1 65.45 43.8 A 3.457 3.457 0 0 1 65.553 43.483 Q 65.778 42.9 66.1 42.9 Q 66.478 42.9 66.454 44.283 A 11.048 11.048 0 0 1 66.45 44.45 Q 66.4 46 66.6 48.8 A 19.29 19.29 0 0 0 66.751 50.443 Q 66.975 52.135 67.5 54.3 Q 68.3 57.6 69.8 60.65 A 20.35 20.35 0 0 0 72.255 64.519 A 18.018 18.018 0 0 0 73.5 65.9 Q 75.7 68.1 78.6 68.1 A 26.861 26.861 0 0 0 80.975 68 A 19.77 19.77 0 0 0 83.1 67.7 Q 84.1 67.5 84.6 67.5 Q 85.054 67.5 83.777 68.16 A 23.943 23.943 0 0 1 83.5 68.3 Z"></path></g></svg></svg></g></svg>